<svg width="92" height="20" viewBox="0 0 92 20" fill="none" xmlns="http://www.w3.org/2000/svg">
<g clip-path="url(#clip0_2505_20)">
<path d="M47.5547 5.19287H47.7539V17.2339C47.7521 17.9667 47.4605 18.669 46.9424 19.1873C46.4243 19.7056 45.7221 19.9978 44.9893 19.9999H44.6562V8.08679C44.6578 7.31905 44.9636 6.58327 45.5068 6.04077C46.0501 5.49827 46.7869 5.1934 47.5547 5.19287Z" fill="#00B4FF"/>
<path d="M31.9688 0H32.169V11.3929L37.5313 6.02197C37.8005 5.7524 38.1203 5.53904 38.4727 5.39429C38.8251 5.24953 39.2031 5.17632 39.584 5.17883C39.965 5.18135 40.341 5.25955 40.6914 5.40894C41.0419 5.55832 41.3594 5.77585 41.625 6.04895L41.7676 6.19604L35.668 12.3051C35.5743 12.3987 35.4742 12.4855 35.3682 12.5649C35.5081 12.6627 35.6386 12.7729 35.7588 12.894L41.7657 18.91L41.5342 19.15C41.2805 19.411 40.9774 19.6188 40.6426 19.7616C40.3078 19.9044 39.948 19.9791 39.584 19.9816C39.2201 19.984 38.8591 19.9141 38.5225 19.7758C38.1859 19.6375 37.8802 19.4336 37.6231 19.176L32.168 13.712V17.1949C32.1699 17.9331 31.8805 18.6422 31.3623 19.1678C30.8442 19.6935 30.1395 19.9933 29.4014 20.002H29.0713V2.93896C29.0673 2.16536 29.37 1.42171 29.9131 0.87085C30.4563 0.319993 31.1952 0.00686858 31.9688 0Z" fill="#00B4FF"/>
<path d="M6.06035e-05 16.9749V16.7688L0.0352169 14.4548C0.0222571 14.1603 0.0384996 13.8652 0.084045 13.5739V13.4159H0.119201C0.271433 12.8116 0.61758 12.2741 1.10553 11.8865C1.59348 11.4988 2.19631 11.2825 2.8194 11.2709H9.27252C9.41503 11.2199 9.54036 11.1291 9.63287 11.0093C9.72539 10.8895 9.78167 10.7456 9.79498 10.5948V8.7738C9.77568 8.6656 9.72417 8.56572 9.64752 8.48694C9.57088 8.40815 9.47293 8.35406 9.3653 8.33179H2.89264C2.51136 8.32866 2.13509 8.25025 1.78424 8.10095C1.43339 7.95166 1.11532 7.73449 0.848693 7.46191C0.582069 7.18934 0.372048 6.86675 0.230529 6.5127C0.0890105 6.15864 0.0182134 5.78006 0.0234981 5.3988V5.19287H10.2491C10.6355 5.2244 11.0115 5.33265 11.3555 5.51135C11.6996 5.69005 12.005 5.93554 12.253 6.23352C12.501 6.5315 12.6866 6.87594 12.7999 7.2467C12.9131 7.61747 12.9514 8.00714 12.9122 8.39282V19.8998H12.5811C12.2032 19.8988 11.8294 19.8198 11.4835 19.6675C11.1376 19.5152 10.8273 19.293 10.5714 19.0149C10.3013 19.326 9.96638 19.5748 9.59088 19.7441C9.21538 19.9135 8.80748 19.9994 8.39557 19.9958L2.87506 19.9429C2.23446 19.93 1.61515 19.7081 1.11237 19.3109C0.609579 18.9137 0.250722 18.363 0.0899044 17.7428H0.077209V17.6919C0.0198713 17.4573 -0.00832558 17.2164 -0.00677533 16.9749H6.06035e-05ZM9.79987 13.3658C9.53673 13.6832 9.20653 13.9384 8.83307 14.113C8.4596 14.2877 8.05198 14.3774 7.63971 14.3759L3.78912 14.3658C3.71864 14.3609 3.64756 14.3709 3.58112 14.3949C3.51467 14.4189 3.45441 14.4565 3.40338 14.5054C3.35235 14.5542 3.31211 14.6133 3.28522 14.6786C3.25832 14.7439 3.24529 14.8143 3.24713 14.8849L3.23639 16.4508C3.23639 16.9508 3.60383 16.8928 3.84283 16.8928H9.30963C9.4381 16.89 9.56135 16.8379 9.6524 16.7472C9.74346 16.6565 9.79558 16.5343 9.79889 16.4059L9.79987 13.3658Z" fill="#00B4FF"/>
<path d="M46.173 3.87522C47.1881 3.87522 48.011 3.05232 48.011 2.03722C48.011 1.02212 47.1881 0.199219 46.173 0.199219C45.1579 0.199219 44.335 1.02212 44.335 2.03722C44.335 3.05232 45.1579 3.87522 46.173 3.87522Z" fill="#00B4FF"/>
<path d="M16.4406 16.0552L22.4855 8.32019H17.8332C17.069 8.30781 16.341 7.99364 15.8078 7.44617C15.2745 6.89869 14.9797 6.1624 14.9875 5.39819V5.19824H25.2472C27.7182 5.19824 27.947 6.74225 26.547 8.53125L20.0294 16.8652L24.715 16.8462C25.4575 16.8615 26.1651 17.1651 26.6876 17.6927C27.2102 18.2204 27.5066 18.9306 27.5148 19.6732V20.0042H17.3898C16.0948 20.0042 15.5111 19.6402 15.2511 19.1882C14.7291 18.2752 15.5266 17.2222 16.4406 16.0552Z" fill="#00B4FF"/>
<path d="M64.4404 9.97998H57.4004C56.8662 9.97998 56.3533 10.1921 55.9756 10.5698C55.5979 10.9475 55.3857 11.4599 55.3857 11.994V17.9869C55.386 18.5209 55.5989 19.0329 55.9766 19.4104C56.3542 19.7879 56.8664 20 57.4004 20H64.4404C64.4406 19.7722 64.3957 19.5466 64.3086 19.3361C64.2215 19.1256 64.0936 18.9343 63.9326 18.7732C63.7716 18.6121 63.5806 18.4843 63.3701 18.3971C63.1597 18.3099 62.9339 18.265 62.7061 18.265H58.167C57.9161 18.265 57.6755 18.1653 57.498 17.9879C57.3206 17.8105 57.2207 17.5699 57.2207 17.319V12.749C57.2207 12.6248 57.2454 12.5018 57.293 12.3871C57.3405 12.2724 57.4102 12.1682 57.498 12.0804C57.5859 11.9927 57.6899 11.923 57.8047 11.8756C57.9195 11.8282 58.0428 11.8038 58.167 11.804H62.7061C62.9339 11.804 63.1597 11.7591 63.3701 11.6719C63.5806 11.5847 63.7716 11.4569 63.9326 11.2958C64.0936 11.1347 64.2215 10.9434 64.3086 10.7329C64.3957 10.5224 64.4406 10.2968 64.4404 10.069V9.97998Z" fill="#00B4FF"/>
<path d="M73.6553 11.871C73.8244 11.871 73.9867 11.938 74.1064 12.0574C74.2262 12.1768 74.2944 12.3388 74.2949 12.5079V17.47C74.2944 17.6391 74.2262 17.8011 74.1064 17.9205C73.9867 18.0399 73.8244 18.1069 73.6553 18.1069H68.4004C68.2313 18.1069 68.069 18.0399 67.9492 17.9205C67.8294 17.8011 67.7622 17.6391 67.7617 17.47V12.5079C67.7622 12.3388 67.8294 12.1768 67.9492 12.0574C68.069 11.938 68.2313 11.871 68.4004 11.871H73.6553ZM73.6553 9.97998H68.4004C67.7297 9.97998 67.0866 10.2464 66.6123 10.7207C66.138 11.195 65.8721 11.8383 65.8721 12.509V17.4709C65.8721 18.1417 66.138 18.785 66.6123 19.2593C67.0866 19.7336 67.7297 20 68.4004 20H73.6553C74.3261 20 74.9699 19.7335 75.4443 19.2593C75.9188 18.785 76.1853 18.1418 76.1855 17.4709V12.509C76.1853 11.8382 75.9188 11.1948 75.4443 10.7206C74.9699 10.2463 74.3261 9.97998 73.6553 9.97998Z" fill="#00B4FF"/>
<path d="M78.5352 12.4609V19.999H78.8281C79.2824 19.999 79.7188 19.8184 80.04 19.4972C80.3613 19.1759 80.541 18.7403 80.541 18.286V12.6129C80.5409 12.5066 80.5619 12.4014 80.6025 12.3032C80.6431 12.205 80.7032 12.1158 80.7783 12.0407C80.8535 11.9655 80.9428 11.9058 81.041 11.8652C81.1392 11.8246 81.2443 11.8038 81.3506 11.804H83.627C83.7333 11.8038 83.8392 11.8247 83.9375 11.8652C84.0358 11.9058 84.1249 11.9654 84.2002 12.0405C84.2755 12.1157 84.3351 12.2049 84.376 12.3031C84.4168 12.4013 84.4383 12.5065 84.4385 12.6129V18.286C84.4383 18.511 84.4823 18.7338 84.5684 18.9417C84.6544 19.1495 84.7804 19.3385 84.9395 19.4976C85.0985 19.6567 85.2882 19.7829 85.4961 19.8689C85.704 19.9549 85.9264 19.9992 86.1514 19.999H86.5576V12.5699C86.5577 12.4636 86.5783 12.3584 86.6191 12.2601C86.66 12.1619 86.7196 12.0727 86.7949 11.9976C86.8702 11.9224 86.9603 11.8629 87.0586 11.8223C87.1569 11.7817 87.2618 11.7609 87.3682 11.761H89.3584C89.4647 11.7609 89.5698 11.7817 89.668 11.8223C89.7662 11.8629 89.8555 11.9225 89.9307 11.9977C90.0058 12.0728 90.0658 12.162 90.1064 12.2603C90.1471 12.3585 90.1671 12.4637 90.167 12.5699V18.286C90.167 18.7403 90.3477 19.1759 90.6689 19.4972C90.9902 19.8184 91.4265 19.999 91.8809 19.999H92.001V12.4609C92.0011 12.1352 91.9371 11.8126 91.8125 11.5116C91.6879 11.2106 91.5057 10.9371 91.2754 10.7067C91.0451 10.4763 90.7717 10.2935 90.4707 10.1688C90.1698 10.0441 89.8472 9.97998 89.5215 9.97998H86.5703C86.3411 9.97968 86.1196 10.0629 85.9473 10.214L85.584 10.53L85.2236 10.214C85.0511 10.0632 84.8297 9.98004 84.6006 9.97998H81.0186C80.6926 9.97972 80.3696 10.0436 80.0684 10.1682C79.7671 10.2928 79.4933 10.4755 79.2627 10.7059C79.0321 10.9363 78.8494 11.21 78.7246 11.5111C78.5998 11.8122 78.5352 12.135 78.5352 12.4609Z" fill="#00B4FF"/>
<path d="M51.6849 19.985C52.4288 19.985 53.0319 19.3819 53.0319 18.638C53.0319 17.8941 52.4288 17.291 51.6849 17.291C50.941 17.291 50.3379 17.8941 50.3379 18.638C50.3379 19.3819 50.941 19.985 51.6849 19.985Z" fill="#00B4FF"/>
</g>
<defs>
<clipPath id="clip0_2505_20">
<rect width="92" height="20" fill="white"/>
</clipPath>
</defs>
</svg>
