<svg width="46" height="46" viewBox="0 0 46 46" fill="none" xmlns="http://www.w3.org/2000/svg">
<g filter="url(#filter0_d_34_163)">
<rect x="43" y="2" width="40" height="40" rx="20" transform="rotate(90 43 2)" fill="white"/>
<path d="M19 22.4833C19 22.3688 19.0206 22.2639 19.0618 22.1685C19.1031 22.0731 19.1752 21.9777 19.2783 21.8823L25.4013 16.2155C25.5663 16.0629 25.7879 15.9913 26.0662 16.0008C26.3445 16.0104 26.5662 16.0915 26.7311 16.2441C26.9373 16.4349 27.0249 16.64 26.9939 16.8594C26.963 17.0789 26.8651 17.2744 26.7002 17.4462L21.2575 22.4833L26.7002 27.5205C26.8651 27.6731 26.9579 27.8782 26.9785 28.1358C26.9991 28.3934 26.9063 28.5985 26.7002 28.7511C26.5352 28.9419 26.3188 29.023 26.0508 28.9944C25.7827 28.9658 25.556 28.8752 25.3704 28.7225L19.2783 23.0843C19.1752 22.9889 19.1031 22.8935 19.0618 22.7981C19.0206 22.7027 19 22.5978 19 22.4833Z" fill="#2A2B2F"/>
</g>
<defs>
<filter id="filter0_d_34_163" x="0" y="0" width="46" height="46" filterUnits="userSpaceOnUse" color-interpolation-filters="sRGB">
<feFlood flood-opacity="0" result="BackgroundImageFix"/>
<feColorMatrix in="SourceAlpha" type="matrix" values="0 0 0 0 0 0 0 0 0 0 0 0 0 0 0 0 0 0 127 0" result="hardAlpha"/>
<feOffset dy="1"/>
<feGaussianBlur stdDeviation="1.5"/>
<feComposite in2="hardAlpha" operator="out"/>
<feColorMatrix type="matrix" values="0 0 0 0 0 0 0 0 0 0 0 0 0 0 0 0 0 0 0.16 0"/>
<feBlend mode="normal" in2="BackgroundImageFix" result="effect1_dropShadow_34_163"/>
<feBlend mode="normal" in="SourceGraphic" in2="effect1_dropShadow_34_163" result="shape"/>
</filter>
</defs>
</svg>
