<svg width="32" height="32" viewBox="0 0 32 32" fill="none" xmlns="http://www.w3.org/2000/svg">
<circle cx="16" cy="16" r="16" fill="white"/>
<g clip-path="url(#clip0_34_119)">
<path fill-rule="evenodd" clip-rule="evenodd" d="M6.3999 6.3999V25.5999H25.5999V6.3999H6.3999ZM22.6382 10.6484L20.3824 21.499C20.3293 21.7551 20.0289 21.8712 19.8169 21.7172L16.7375 19.4815C16.5506 19.3458 16.2957 19.353 16.1167 19.4989L14.4094 20.8906C14.2113 21.0527 13.9127 20.9624 13.8368 20.7183L12.6513 16.9057L9.58845 15.7626C9.27733 15.6461 9.27467 15.2068 9.58491 15.0873L22.1549 10.2382C22.4214 10.1351 22.6963 10.3686 22.6382 10.6484Z" fill="#5DA0FB"/>
<path fill-rule="evenodd" clip-rule="evenodd" d="M19.6318 12.6104L13.6459 16.2971C13.4165 16.4387 13.3085 16.7158 13.3825 16.9752L14.0297 19.2493C14.0757 19.4104 14.3095 19.3939 14.3319 19.2274L14.5001 17.9804C14.5319 17.7456 14.6438 17.5291 14.8175 17.3676L19.7576 12.7755C19.8501 12.6899 19.7393 12.5444 19.6318 12.6104Z" fill="#5DA0FB"/>
</g>
<defs>
<clipPath id="clip0_34_119">
<rect x="6.3999" y="6.3999" width="19.2" height="19.2" rx="9.6" fill="white"/>
</clipPath>
</defs>
</svg>
