<svg width="32" height="32" viewBox="0 0 32 32" fill="none" xmlns="http://www.w3.org/2000/svg">
<circle cx="16" cy="16" r="16" fill="white"/>
<g clip-path="url(#clip0_34_125)">
<path d="M15.9999 8.1303C18.5631 8.1303 18.8671 8.1399 19.8799 8.1863C22.4815 8.3047 23.6967 9.5391 23.8151 12.1215C23.8615 13.1335 23.8703 13.4375 23.8703 16.0007C23.8703 18.5647 23.8607 18.8679 23.8151 19.8799C23.6959 22.4599 22.4839 23.6967 19.8799 23.8151C18.8671 23.8615 18.5647 23.8711 15.9999 23.8711C13.4367 23.8711 13.1327 23.8615 12.1207 23.8151C9.5127 23.6959 8.3039 22.4559 8.1855 19.8791C8.1391 18.8671 8.1295 18.5639 8.1295 15.9999C8.1295 13.4367 8.1399 13.1335 8.1855 12.1207C8.3047 9.5391 9.5167 8.3039 12.1207 8.1855C13.1335 8.1399 13.4367 8.1303 15.9999 8.1303ZM15.9999 6.3999C13.3927 6.3999 13.0663 6.4111 12.0423 6.4575C8.5559 6.6175 6.6183 8.5519 6.4583 12.0415C6.4111 13.0663 6.3999 13.3927 6.3999 15.9999C6.3999 18.6071 6.4111 18.9343 6.4575 19.9583C6.6175 23.4447 8.5519 25.3823 12.0415 25.5423C13.0663 25.5887 13.3927 25.5999 15.9999 25.5999C18.6071 25.5999 18.9343 25.5887 19.9583 25.5423C23.4415 25.3823 25.3839 23.4479 25.5415 19.9583C25.5887 18.9343 25.5999 18.6071 25.5999 15.9999C25.5999 13.3927 25.5887 13.0663 25.5423 12.0423C25.3855 8.5591 23.4487 6.6183 19.9591 6.4583C18.9343 6.4111 18.6071 6.3999 15.9999 6.3999ZM15.9999 11.0703C13.2775 11.0703 11.0703 13.2775 11.0703 15.9999C11.0703 18.7223 13.2775 20.9303 15.9999 20.9303C18.7223 20.9303 20.9295 18.7231 20.9295 15.9999C20.9295 13.2775 18.7223 11.0703 15.9999 11.0703ZM15.9999 19.1999C14.2327 19.1999 12.7999 17.7679 12.7999 15.9999C12.7999 14.2327 14.2327 12.7999 15.9999 12.7999C17.7671 12.7999 19.1999 14.2327 19.1999 15.9999C19.1999 17.7679 17.7671 19.1999 15.9999 19.1999ZM21.1247 9.7239C20.4879 9.7239 19.9719 10.2399 19.9719 10.8759C19.9719 11.5119 20.4879 12.0279 21.1247 12.0279C21.7607 12.0279 22.2759 11.5119 22.2759 10.8759C22.2759 10.2399 21.7607 9.7239 21.1247 9.7239Z" fill="#5DA0FB"/>
</g>
<defs>
<clipPath id="clip0_34_125">
<rect width="19.2" height="19.2" fill="white" transform="translate(6.3999 6.3999)"/>
</clipPath>
</defs>
</svg>
