<?xml version="1.0" encoding="UTF-8"?>
<svg id="uuid-fc075bcc-69a0-477f-b9c5-9ac01e8e6a91" data-name="Layer 1" xmlns="http://www.w3.org/2000/svg" viewBox="0 0 917.04 85.42">
  <defs>
    <style>
      .uuid-b147c483-e8ed-4e67-8d1d-a6a56babfc35 {
        fill: #f5cd70;
      }

      .uuid-b147c483-e8ed-4e67-8d1d-a6a56babfc35, .uuid-e9427fa9-5b0f-4064-8292-b481fc8684b2 {
        stroke-width: 0px;
      }

      .uuid-e9427fa9-5b0f-4064-8292-b481fc8684b2 {
        fill: #5da0fb;
      }
    </style>
  </defs>
  <path class="uuid-b147c483-e8ed-4e67-8d1d-a6a56babfc35" d="m55.79,23.88c-6.51-.12-12.94,1.46-18.64,4.59-5.71,3.13-10.5,7.69-13.9,13.24h64.39c-5.01-10.76-16.71-17.83-31.84-17.83Z"/>
  <path class="uuid-e9427fa9-5b0f-4064-8292-b481fc8684b2" d="m119.17,71.17h-13.45c-.22,0-.44-.08-.6-.23-.17-.15-.27-.35-.29-.58-.4-2.71-1.32-5.32-2.7-7.68-3-5-7.59-7.5-13.73-7.5s-10.48,2.52-13.39,7.49c-1.35,2.38-2.25,4.98-2.64,7.69-.03.22-.13.42-.29.57-.16.15-.38.23-.6.23h-21.67c-.22,0-.43-.08-.6-.23-.17-.15-.27-.35-.29-.57-.41-2.68-1.33-5.26-2.71-7.6-3-4.93-7.57-7.43-13.66-7.43s-10.49,2.51-13.45,7.47c-1.37,2.32-2.28,4.88-2.69,7.54-.02.22-.13.42-.29.57s-.38.23-.6.22H5.58c-1.62.01-3.2-.54-4.46-1.56-.37-.36-.66-.8-.85-1.28-.19-.48-.28-.99-.27-1.51-.02-.85.22-1.68.69-2.39.47-.7,1.15-1.24,1.95-1.54.53-.22,1.08-.38,1.65-.46,1.49-11.59,6.53-22.44,14.42-31.06,4.39-4.79,9.75-8.61,15.72-11.19,5.97-2.58,12.41-3.88,18.92-3.81,15.13,0,24.91,6,30.44,11.11,3.41,3.05,6.23,6.71,8.32,10.78,13.54,4,20.42,12.37,23.8,18.77,2.24,4.11,3.65,8.61,4.15,13.26,0,.12,0,.24-.05.36-.04.11-.11.22-.19.31-.09.08-.19.15-.3.19-.11.04-.23.06-.35.05Zm-12.68-1.75h11.68c-.62-4.08-1.93-8.01-3.87-11.65-4.74-8.91-12.5-14.94-23.07-17.93-.13-.04-.25-.1-.35-.19-.1-.09-.18-.2-.23-.32-2.01-4.03-4.77-7.63-8.13-10.62-5.29-4.83-14.65-10.58-29.17-10.58-6.26-.07-12.46,1.19-18.21,3.68-5.74,2.49-10.9,6.17-15.12,10.79-7.79,8.52-12.69,19.28-14,30.75-.02.22-.13.42-.29.57-.16.15-.37.23-.59.23-.34,0-3.33.14-3.33,2.68-.01.28.03.56.13.82.1.26.26.5.46.69.92.7,2.04,1.07,3.2,1.06h9.19c.5-2.63,1.45-5.16,2.8-7.47,1.5-2.62,3.69-4.79,6.34-6.26,2.64-1.47,5.64-2.19,8.66-2.08,8.45,0,12.94,4.54,15.22,8.35,1.36,2.31,2.31,4.84,2.8,7.48h20.14c.47-2.65,1.39-5.2,2.72-7.54,1.47-2.66,3.66-4.85,6.31-6.34,2.65-1.49,5.66-2.22,8.69-2.1,8.51,0,13,4.59,15.3,8.43,1.34,2.34,2.26,4.9,2.72,7.55Z"/>
  <path class="uuid-e9427fa9-5b0f-4064-8292-b481fc8684b2" d="m32.58,85.42c-2.75,0-5.44-.81-7.73-2.34-2.29-1.53-4.07-3.7-5.12-6.24-1.05-2.54-1.33-5.33-.79-8.03.53-2.7,1.86-5.17,3.8-7.12,1.94-1.95,4.42-3.27,7.12-3.81,2.7-.54,5.49-.26,8.03.79,2.54,1.05,4.71,2.83,6.24,5.12,1.53,2.29,2.34,4.97,2.34,7.72,0,3.68-1.47,7.22-4.07,9.82-2.6,2.6-6.14,4.07-9.82,4.08Zm0-26c-2.4,0-4.74.71-6.73,2.04-1.99,1.33-3.55,3.22-4.46,5.43-.92,2.21-1.16,4.65-.69,7s1.62,4.51,3.31,6.2c1.7,1.69,3.85,2.85,6.2,3.32,2.35.47,4.79.23,7-.69,2.21-.92,4.11-2.47,5.43-4.46,1.33-1.99,2.04-4.34,2.04-6.73,0-3.21-1.28-6.28-3.55-8.55-2.27-2.27-5.34-3.54-8.55-3.55Z"/>
  <path class="uuid-e9427fa9-5b0f-4064-8292-b481fc8684b2" d="m88.73,85.42c-2.75,0-5.44-.81-7.72-2.34-2.29-1.53-4.07-3.7-5.12-6.24-1.05-2.54-1.33-5.33-.79-8.03s1.86-5.17,3.8-7.12,4.42-3.27,7.12-3.81c2.7-.54,5.49-.26,8.03.79,2.54,1.05,4.71,2.83,6.24,5.12,1.53,2.29,2.34,4.97,2.34,7.72,0,3.68-1.47,7.22-4.07,9.82-2.6,2.6-6.14,4.07-9.82,4.08Zm0-26c-2.4,0-4.74.71-6.73,2.04-1.99,1.33-3.55,3.22-4.46,5.43-.92,2.21-1.16,4.65-.69,7,.47,2.35,1.62,4.51,3.32,6.2s3.85,2.85,6.2,3.32c2.35.47,4.79.23,7-.69,2.21-.92,4.11-2.47,5.44-4.46,1.33-1.99,2.04-4.34,2.04-6.73,0-3.21-1.28-6.28-3.55-8.55s-5.34-3.54-8.55-3.55Z"/>
  <path class="uuid-e9427fa9-5b0f-4064-8292-b481fc8684b2" d="m85.24,40.31H20.87c-.16,0-.32-.04-.46-.12-.14-.08-.25-.2-.33-.34-.08-.14-.12-.3-.12-.45s.04-.32.12-.46c3.37-5.49,8.07-10.04,13.66-13.23,6-3.36,12.78-5.08,19.66-5,7.04-.11,13.99,1.62,20.16,5,5.44,3.05,9.81,7.71,12.48,13.35.06.14.09.29.08.44-.01.15-.06.29-.14.42-.08.12-.19.22-.32.28-.13.07-.27.1-.42.11Zm-62.73-1.79h61.29c-5.33-10.07-16.57-16-30.38-16-6.57-.08-13.04,1.57-18.77,4.78-4.85,2.76-9,6.6-12.13,11.22h-.01Z"/>
  <path class="uuid-b147c483-e8ed-4e67-8d1d-a6a56babfc35" d="m872.72,27.59c2.46-5.88-.32-12.63-6.19-15.08-5.88-2.45-12.63.32-15.09,6.2-2.45,5.88.32,12.63,6.2,15.08,5.88,2.45,12.63-.32,15.08-6.2Z"/>
  <path class="uuid-b147c483-e8ed-4e67-8d1d-a6a56babfc35" d="m905.51,34.66c6.37,0,11.53-5.16,11.53-11.53s-5.16-11.53-11.53-11.53-11.53,5.16-11.53,11.53,5.16,11.53,11.53,11.53Z"/>
  <path class="uuid-e9427fa9-5b0f-4064-8292-b481fc8684b2" d="m860.05,34.56c-2.46,0-4.86-.73-6.91-2.1-2.04-1.37-3.63-3.31-4.57-5.58-.94-2.27-1.19-4.77-.71-7.18.48-2.41,1.67-4.63,3.4-6.36,1.74-1.74,3.96-2.92,6.37-3.4,2.41-.48,4.91-.23,7.18.71,2.28.94,4.22,2.54,5.58,4.58,1.37,2.05,2.09,4.45,2.09,6.91,0,3.29-1.32,6.45-3.65,8.78-2.33,2.33-5.49,3.64-8.78,3.64Zm0-23.06c-2.11,0-4.17.61-5.92,1.78-1.75,1.17-3.12,2.83-3.93,4.77-.81,1.94-1.03,4.08-.62,6.15.41,2.07,1.42,3.96,2.91,5.46,1.48,1.49,3.38,2.51,5.44,2.92,2.07.41,4.21.2,6.16-.6,1.94-.8,3.6-2.17,4.78-3.92,1.17-1.75,1.79-3.81,1.79-5.91,0-2.82-1.12-5.52-3.1-7.52-1.99-2-4.69-3.12-7.51-3.13h0Z"/>
  <path class="uuid-e9427fa9-5b0f-4064-8292-b481fc8684b2" d="m903.49,34.56c-2.46,0-4.86-.73-6.91-2.1-2.04-1.37-3.63-3.31-4.57-5.58-.94-2.27-1.19-4.77-.71-7.18.48-2.41,1.67-4.63,3.4-6.36,1.74-1.74,3.96-2.92,6.37-3.4,2.41-.48,4.91-.23,7.18.71,2.28.94,4.22,2.54,5.58,4.58,1.37,2.05,2.09,4.45,2.09,6.91,0,3.29-1.32,6.45-3.65,8.78-2.33,2.33-5.49,3.64-8.78,3.64Zm0-23.06c-2.1,0-4.16.62-5.91,1.79s-3.11,2.83-3.92,4.77c-.8,1.94-1.02,4.08-.61,6.15.42,2.06,1.43,3.96,2.92,5.45,1.48,1.49,3.38,2.5,5.44,2.91,2.07.41,4.21.2,6.15-.6,1.95-.81,3.61-2.17,4.78-3.92,1.17-1.75,1.79-3.81,1.79-5.91,0-2.82-1.12-5.53-3.12-7.53-1.99-2-4.7-3.12-7.52-3.12h0Z"/>
  <path class="uuid-e9427fa9-5b0f-4064-8292-b481fc8684b2" d="m860.05,23.03c-.15,0-.3-.04-.43-.11-.21-.11-.36-.3-.43-.53-.06-.23-.04-.47.07-.68l11.53-21.22c.03-.06.06-.11.1-.16.03-.04.07-.08.11-.11.16-.13.35-.21.56-.22h22.65c.17,0,.35.05.49.15.15.1.26.23.33.39l9.28,21.25c.06.14.09.28.07.43-.01.15-.06.29-.14.42-.08.12-.19.23-.32.3s-.28.11-.43.11h-22.65c-.17,0-.34-.05-.49-.15-.14-.09-.26-.23-.33-.38l-8.53-19.58-10.65,19.64c-.08.14-.19.26-.33.34-.14.08-.3.12-.46.12Zm21.38-1.79h20.69l-8.46-19.46h-20.71l8.48,19.46Z"/>
</svg>