<svg width="32" height="32" viewBox="0 0 32 32" fill="none" xmlns="http://www.w3.org/2000/svg">
<circle cx="16" cy="16" r="16" fill="white"/>
<g clip-path="url(#clip0_34_115)">
<path d="M25.5999 10.0454C24.8935 10.359 24.1343 10.5702 23.3375 10.6654C24.1511 10.1782 24.7759 9.40624 25.0695 8.48624C24.3087 8.93744 23.4655 9.26544 22.5679 9.44224C21.8503 8.67664 20.8255 8.19824 19.6927 8.19824C17.1495 8.19824 15.2807 10.571 15.8551 13.0342C12.5823 12.8702 9.6799 11.3022 7.7367 8.91904C6.7047 10.6894 7.2015 13.0054 8.9551 14.1782C8.3103 14.1574 7.7023 13.9806 7.1719 13.6854C7.1287 15.5102 8.4367 17.2174 10.3311 17.5974C9.7767 17.7478 9.1695 17.783 8.5519 17.6646C9.0527 19.2294 10.5071 20.3678 12.2319 20.3998C10.5759 21.6982 8.4895 22.2782 6.3999 22.0318C8.1431 23.1494 10.2143 23.8014 12.4383 23.8014C19.7519 23.8014 23.8839 17.6246 23.6343 12.0846C24.4039 11.5286 25.0719 10.835 25.5999 10.0454Z" fill="#5DA0FB"/>
</g>
<defs>
<clipPath id="clip0_34_115">
<rect width="19.2" height="19.2" fill="white" transform="translate(6.3999 6.3999)"/>
</clipPath>
</defs>
</svg>
