<svg width="32" height="32" viewBox="0 0 32 32" fill="none" xmlns="http://www.w3.org/2000/svg">
<circle cx="16" cy="16" r="16" fill="white"/>
<g clip-path="url(#clip0_34_111)">
<path d="M21.5999 6.3999H10.3999C8.1911 6.3999 6.3999 8.1911 6.3999 10.3999V21.5999C6.3999 23.8087 8.1911 25.5999 10.3999 25.5999H21.5999C23.8095 25.5999 25.5999 23.8087 25.5999 21.5999V10.3999C25.5999 8.1911 23.8095 6.3999 21.5999 6.3999ZM12.7999 21.5999H10.3999V12.7999H12.7999V21.5999ZM11.5999 11.7855C10.8271 11.7855 10.1999 11.1535 10.1999 10.3743C10.1999 9.5951 10.8271 8.9631 11.5999 8.9631C12.3727 8.9631 12.9999 9.5951 12.9999 10.3743C12.9999 11.1535 12.3735 11.7855 11.5999 11.7855ZM22.3999 21.5999H19.9999V17.1167C19.9999 14.4223 16.7999 14.6263 16.7999 17.1167V21.5999H14.3999V12.7999H16.7999V14.2119C17.9167 12.1431 22.3999 11.9903 22.3999 16.1927V21.5999Z" fill="#5DA0FB"/>
</g>
<defs>
<clipPath id="clip0_34_111">
<rect width="19.2" height="19.2" fill="white" transform="translate(6.3999 6.3999)"/>
</clipPath>
</defs>
</svg>
