<svg width="12" height="8" viewBox="0 0 12 8" fill="none" xmlns="http://www.w3.org/2000/svg">
<path d="M6.00015 7.07481C5.90015 7.07481 5.80848 7.05815 5.72515 7.02481C5.64182 6.99148 5.55848 6.93315 5.47515 6.84981L0.525149 1.89981C0.391816 1.76648 0.329316 1.58731 0.337649 1.36231C0.345983 1.13731 0.416816 0.958147 0.550149 0.824813C0.716816 0.658147 0.895983 0.587313 1.08765 0.612313C1.27932 0.637313 1.45015 0.71648 1.60015 0.849813L6.00015 5.24981L10.4001 0.849813C10.5335 0.71648 10.7126 0.64148 10.9376 0.624813C11.1627 0.608147 11.3418 0.683147 11.4752 0.849813C11.6418 0.983147 11.7126 1.15815 11.6876 1.37481C11.6627 1.59148 11.5835 1.77481 11.4501 1.92481L6.52515 6.84981C6.44182 6.93315 6.35848 6.99148 6.27515 7.02481C6.19182 7.05815 6.10015 7.07481 6.00015 7.07481Z" fill="#707174"/>
</svg>
